<svg xmlns="http://www.w3.org/2000/svg" viewBox="0 0 540 270" role="img" aria-label="PRQC Bench logo">
  <title>PRQC Bench</title>
  <g fill="none" stroke="#14998a" stroke-linecap="round" stroke-linejoin="round">
    <!-- backrest: top edge rises to a peak -->
    <path stroke-width="14" d="M68,186 V88 Q68,62 94,62 H150 C205,62 235,20 270,20 C305,20 335,62 390,62 H446 Q472,62 472,88 V186"/>
    <!-- seat and legs -->
    <path stroke-width="16" d="M40,186 H500 M88,186 V248 M452,186 V248"/>
    <!-- PRQC -->
    <g stroke-width="20">
      <path d="M123,158 V96 H147 A20,20 0 0 1 147,136 H123"/>
      <path d="M197,158 V96 H221 A20,20 0 0 1 221,136 H197 M221,136 L247,158"/>
      <circle cx="307" cy="127" r="30"/>
      <path d="M321,143 L341,163"/>
      <path d="M417,105 A30,30 0 1 0 417,149"/>
    </g>
  </g>
</svg>
